<?xml version="1.0" encoding="UTF-8" standalone="no"?>
<!-- Created with Inkscape (http://www.inkscape.org/) -->

<svg
   version="1.1"
   id="svg2"
   width="4000"
   height="2400"
   viewBox="0 0 4000 2400"
   xmlns:inkscape="http://www.inkscape.org/namespaces/inkscape"
   xmlns:sodipodi="http://sodipodi.sourceforge.net/DTD/sodipodi-0.dtd"
   xmlns="http://www.w3.org/2000/svg"
   xmlns:svg="http://www.w3.org/2000/svg">
  <defs
     id="defs6" />
  <g
     id="g8"
     inkscape:groupmode="layer"
     inkscape:label="ink_ext_XXXXXX"
     transform="matrix(1.3333333,0,0,-1.3333333,0,2400)">
    <g
       id="g10"
       transform="scale(0.1)">
      <path
         d="M 30000,0 H 0 V 18000 H 30000 V 0"
         style="fill:#ffffff;fill-opacity:0;fill-rule:nonzero;stroke:none"
         id="path12" />
      <path
         d="m 14568.2,-26196.6 -3595.4,6339 -6337.78,3594.3 -3594.29,6337.8 -6337.87,3594.3 L -8891.43,6.70313 -15229.3,3601 l -3593.2,6336.74 -1364.9,9.12 1380,-1363.62 -1363.9,1379.71 1380,-1363.58 -1363.8,1379.77 1380,-1363.55 6.9,1380.97 3595.4,-6338.96 6337.84,-3594.1977 3594.3,-6337.9023 6337.86,-3594.3 3594.29,-6337.9 6337.91,-3594.3 3593.2,-6336.7 1364.9,-9.2 -1380,1363.7 1363.9,-1379.7 -1380,1363.5 1363.8,-1379.7 -1381.1,1362.5 -5.9,-1380"
         style="fill:#000000;fill-opacity:0.15;fill-rule:nonzero;stroke:none"
         id="path14" />
      <path
         d="m 15468.2,-25296.6 -3595.4,6339 -6337.78,3594.3 -3594.29,6337.8 -6337.87,3594.3 L -7991.43,906.703 -14329.3,4501 l -3593.2,6336.7 -1364.9,9.2 1380,-1363.65 -1363.9,1379.65 1380,-1363.53 -1363.8,1379.73 1380,-1363.51 6.9,1381.01 3595.4,-6339 6337.84,-3594.198 3594.3,-6337.902 6337.86,-3594.3 3594.29,-6337.9 6337.91,-3594.3 3593.2,-6336.7 1364.9,-9.2 -1380,1363.7 1363.9,-1379.7 -1380,1363.5 1363.8,-1379.7 -1381.1,1362.5 -5.9,-1380"
         style="fill:#000000;fill-opacity:0.15;fill-rule:nonzero;stroke:none"
         id="path16" />
      <path
         d="m 16368.2,-24396.6 -3595.4,6339 -6337.78,3594.3 -3594.29,6337.8 -6337.87,3594.3 -3594.29,6337.9 -6337.87,3594.3 -3593.2,6336.7 -1364.9,9.2 1380,-1363.6 -1363.9,1379.6 1380,-1363.5 -1363.8,1379.7 1380,-1363.5 6.9,1381 3595.4,-6339 6337.84,-3594.2 3594.3,-6337.9 6337.86,-3594.3 3594.29,-6337.9 6337.91,-3594.3 3593.2,-6336.7 1364.9,-9.2 -1380,1363.7 1363.9,-1379.7 -1380,1363.5 1363.8,-1379.7 -1381.1,1362.5 -5.9,-1380"
         style="fill:#000000;fill-opacity:0.15;fill-rule:nonzero;stroke:none"
         id="path18" />
      <path
         d="m 17268.2,-23496.6 -3595.4,6339 -6337.78,3594.3 -3594.29,6337.8 -6337.87,3594.3 -3594.29,6337.9 -6337.87,3594.3 -3593.2,6336.7 -1364.9,9.2 1380,-1363.6 -1363.9,1379.6 1380,-1363.5 -1363.8,1379.7 1380,-1363.5 6.9,1381 3595.4,-6339 6337.84,-3594.2 3594.3,-6337.9 6337.86,-3594.3 3594.29,-6337.9 6337.91,-3594.3 3593.2,-6336.7 1364.9,-9.2 -1380,1363.7 1363.9,-1379.7 -1380,1363.5 1363.8,-1379.7 -1381.1,1362.5 -5.9,-1380"
         style="fill:#000000;fill-opacity:0.15;fill-rule:nonzero;stroke:none"
         id="path20" />
      <path
         d="m 18168.2,-22596.6 -3595.4,6339 -6337.78,3594.3 -3594.29,6337.8 -6337.87,3594.3 -3594.29,6337.9 -6337.87,3594.3 -3593.2,6336.7 -1364.9,9.2 1380,-1363.6 -1363.9,1379.6 1380,-1363.5 -1363.8,1379.7 1380,-1363.5 6.9,1381 3595.4,-6339 6337.84,-3594.2 3594.3,-6337.9 6337.86,-3594.3 3594.29,-6337.9 6337.91,-3594.3 3593.2,-6336.7 1364.9,-9.2 -1380,1363.7 1363.9,-1379.7 -1380,1363.5 1363.8,-1379.7 -1381.1,1362.5 -5.9,-1380"
         style="fill:#000000;fill-opacity:0.15;fill-rule:nonzero;stroke:none"
         id="path22" />
      <path
         d="m 19068.2,-21696.6 -3595.4,6339 -6337.79,3594.3 -3594.29,6337.8 -6337.861,3594.3 -3594.289,6337.9 -6337.87,3594.28 -3593.2,6336.72 -1364.9,9.1 1380,-1363.5 -1363.9,1379.6 1380,-1363.5 -1363.9,1379.7 1380.1,-1363.5 6.9,1381 3595.4,-6338.99 6337.84,-3594.21 3594.296,-6337.9 6337.864,-3594.3 3594.29,-6337.9 6337.91,-3594.3 3593.2,-6336.7 1364.8,-9.2 -1379.8,1363.7 1363.7,-1379.8 -1379.9,1363.7 1363.7,-1379.9 -1381,1362.6 -5.9,-1380"
         style="fill:#000000;fill-opacity:0.15;fill-rule:nonzero;stroke:none"
         id="path24" />
      <path
         d="m 19968.2,-20796.6 -3595.4,6339 L 10035,-10863.3 6440.72,-4525.5 102.859,-931.199 -3491.43,5406.7 l -6337.88,3594.28 -3593.19,6336.72 -1364.9,9.1 1380,-1363.5 -1363.9,1379.6 1380,-1363.5 -1363.9,1379.7 1380.1,-1363.5 6.9,1381 L -9772.79,9057.61 -3434.96,5463.4 159.336,-874.5 6497.2,-4468.8 l 3594.3,-6337.9 6337.9,-3594.3 3593.2,-6336.7 1364.8,-9.2 -1379.8,1363.7 1363.7,-1379.8 -1379.9,1363.7 1363.7,-1379.9 -1381,1362.6 -5.9,-1380"
         style="fill:#000000;fill-opacity:0.15;fill-rule:nonzero;stroke:none"
         id="path26" />
      <path
         d="m 20868.2,-19896.6 -3595.4,6339 L 10935,-9963.3 7340.72,-3625.5 1002.86,-31.1992 -2591.43,6306.7 l -6337.88,3594.28 -3593.19,6336.72 -1364.9,9.1 1380,-1363.5 -1363.9,1379.6 1380,-1363.5 -1363.9,1379.7 1380.1,-1363.5 6.9,1381 3595.41,-6338.99 6337.83,-3594.21 3594.3,-6337.9 6337.86,-3594.3 3594.3,-6337.9 6337.9,-3594.3 3593.2,-6336.7 1364.8,-9.2 -1379.8,1363.7 1363.7,-1379.8 -1379.9,1363.7 1363.7,-1379.9 -1381,1362.6 -5.9,-1380"
         style="fill:#000000;fill-opacity:0.15;fill-rule:nonzero;stroke:none"
         id="path28" />
      <path
         d="m 21768.2,-18996.6 -3595.4,6339 L 11835,-9063.3 8240.72,-2725.5 1902.86,868.801 -1691.43,7206.7 -8029.31,10801 l -3593.19,6336.7 -1364.9,9.2 1379.9,-1363.7 -1363.8,1379.8 1380,-1363.7 -1363.8,1379.9 1380,-1363.6 6.9,1381 3595.41,-6339 6337.83,-3594.3 3594.3,-6337.8 6337.86,-3594.3 3594.3,-6337.9 6337.9,-3594.3 3593.2,-6336.7 1364.8,-9.2 -1379.8,1363.7 1363.7,-1379.8 -1379.9,1363.7 1363.7,-1379.9 -1381,1362.6 -5.9,-1380"
         style="fill:#000000;fill-opacity:0.15;fill-rule:nonzero;stroke:none"
         id="path30" />
      <path
         d="m 22668.2,-18096.6 -3595.4,6339 L 12735,-8163.3 9140.72,-1825.5 2802.86,1768.8 -791.43,8106.68 -7129.31,11701 l -3593.19,6336.7 -1364.9,9.2 1379.9,-1363.7 -1363.8,1379.8 1380,-1363.7 -1363.8,1379.9 1380,-1363.6 6.9,1381 3595.41,-6339 L -734.961,8163.35 2859.34,1825.5 9197.2,-1768.8 l 3594.3,-6337.9 6337.9,-3594.3 3593.2,-6336.7 1364.8,-9.2 -1379.8,1363.7 1363.7,-1379.8 -1379.9,1363.7 1363.7,-1379.9 -1381,1362.6 -5.9,-1380"
         style="fill:#000000;fill-opacity:0.15;fill-rule:nonzero;stroke:none"
         id="path32" />
      <path
         d="m 23568.2,-17196.6 -3595.4,6339 L 13635,-7263.3 10040.7,-925.5 3702.86,2668.8 108.57,9006.67 -6229.31,12601 l -3593.19,6336.7 -1364.9,9.2 1379.93,-1363.7 -1363.83,1379.8 1379.96,-1363.7 -1363.76,1379.9 1379.97,-1363.6 6.97,1381 3595.37,-6339 L 165.039,9063.35 3759.34,2725.5 10097.2,-868.801 13691.5,-7206.7 l 6337.9,-3594.3 3593.2,-6336.7 1364.8,-9.2 -1379.8,1363.7 1363.7,-1379.8 -1379.9,1363.7 1363.7,-1379.9 -1381,1362.6 -5.9,-1380"
         style="fill:#000000;fill-opacity:0.15;fill-rule:nonzero;stroke:none"
         id="path34" />
      <path
         d="m 24468.2,-16296.6 -3595.4,6339 L 14535,-6363.3 10940.7,-25.5 4602.86,3568.8 1008.57,9906.67 -5329.31,13501 l -3593.19,6336.7 -1364.9,9.2 1379.93,-1363.7 -1363.83,1379.8 1379.96,-1363.7 -1363.76,1379.9 1379.97,-1363.6 6.97,1381 3595.37,-6339 L 1065.04,9963.35 4659.34,3625.5 10997.2,31.1992 14591.5,-6306.7 20929.4,-9901 l 3593.2,-6336.7 1364.8,-9.2 -1379.8,1363.7 1363.7,-1379.8 -1379.9,1363.7 1363.7,-1379.9 -1381,1362.6 -5.9,-1380"
         style="fill:#000000;fill-opacity:0.15;fill-rule:nonzero;stroke:none"
         id="path36" />
      <path
         d="m 25368.2,-15396.6 -3595.4,6339 -6337.8,3594.3 -3594.3,6337.8 -6337.84,3594.3 -3594.29,6337.9 -6337.88,3594.3 -3593.19,6336.7 -1364.86,9.2 1379.89,-1363.7 -1363.8,1379.8 1379.93,-1363.7 -1363.75,1379.9 1379.96,-1363.6 6.97,1381 3595.37,-6339 6337.83,-3594.2 3594.3,-6337.9 6337.86,-3594.301 3594.3,-6337.899 6337.9,-3594.3 3593.2,-6336.7 1364.8,-9.2 -1379.8,1363.7 1363.7,-1379.8 -1379.9,1363.7 1363.7,-1379.9 -1381,1362.6 -5.9,-1380"
         style="fill:#000000;fill-opacity:0.15;fill-rule:nonzero;stroke:none"
         id="path38" />
      <path
         d="m 26268.2,-14496.6 -3595.4,6339 -6337.8,3594.3 -3594.3,6337.8 -6337.84,3594.3 -3594.29,6337.9 -6337.88,3594.3 -3593.19,6336.7 -1364.86,9.2 1379.89,-1363.7 -1363.8,1379.8 1379.93,-1363.7 -1363.75,1379.9 1379.96,-1363.6 6.97,1381 3595.37,-6339 6337.83,-3594.2 3594.3,-6337.9 6337.86,-3594.3 3594.3,-6337.9 6337.9,-3594.3 3593.2,-6336.7 1364.8,-9.2 -1379.8,1363.7 1363.7,-1379.8 -1379.9,1363.7 1363.7,-1379.9 -1381,1362.6 -5.9,-1380"
         style="fill:#000000;fill-opacity:0.15;fill-rule:nonzero;stroke:none"
         id="path40" />
      <path
         d="m 27168.2,-13596.6 -3595.4,6339 -6337.8,3594.3 -3594.3,6337.8 -6337.84,3594.3 -3594.29,6337.9 -6337.88,3594.3 -3593.19,6336.7 -1364.86,9.2 1379.89,-1363.7 -1363.8,1379.8 1379.93,-1363.7 -1363.75,1379.9 1379.96,-1363.6 6.97,1381 3595.37,-6339 6337.83,-3594.2 3594.3,-6337.9 6337.86,-3594.3 3594.3,-6337.9 6337.9,-3594.3 3593.2,-6336.7 1364.8,-9.2 -1379.8,1363.7 1363.7,-1379.8 -1379.9,1363.7 1363.7,-1379.9 -1381,1362.6 -5.9,-1380"
         style="fill:#000000;fill-opacity:0.15;fill-rule:nonzero;stroke:none"
         id="path42" />
      <path
         d="m 28068.2,-12696.6 -3595.4,6339 -6337.8,3594.3 -3594.3,6337.8 -6337.84,3594.3 -3594.29,6337.9 -6337.88,3594.3 -3593.19,6336.7 -1364.86,9.2 1379.89,-1363.7 -1363.8,1379.8 1379.93,-1363.7 -1363.75,1379.9 1379.96,-1363.6 6.97,1381 3595.37,-6339 6337.83,-3594.2 3594.3,-6337.9 6337.86,-3594.3 3594.3,-6337.9 6337.9,-3594.3 3593.2,-6336.7 1364.8,-9.2 -1379.8,1363.7 1363.7,-1379.8 -1379.9,1363.7 1363.7,-1379.9 -1381,1362.6 -5.9,-1380"
         style="fill:#000000;fill-opacity:0.15;fill-rule:nonzero;stroke:none"
         id="path44" />
      <path
         d="m 28968.2,-11796.6 -3595.4,6339 L 19035,-1863.3 15440.7,4474.5 9102.86,8068.81 5508.57,14406.7 -829.309,18001 -4422.5,24337.7 l -1364.86,9.2 1379.89,-1363.7 -1363.8,1379.8 1379.93,-1363.7 -1363.75,1379.9 1379.96,-1363.6 6.97,1381 3595.371,-6339 6337.829,-3594.2 3594.3,-6337.91 6337.86,-3594.29 3594.3,-6337.9 6337.9,-3594.3 3593.2,-6336.7 1364.8,-9.2 -1379.8,1363.7 1363.7,-1379.8 -1379.9,1363.7 1363.7,-1379.9 -1381,1362.6 -5.9,-1380"
         style="fill:#000000;fill-opacity:0.15;fill-rule:nonzero;stroke:none"
         id="path46" />
      <path
         d="m 29868.2,-10896.6 -3595.4,6339 L 19935,-963.297 16340.7,5374.5 10002.9,8968.81 6408.57,15306.7 70.6914,18901 -3522.5,25237.7 l -1364.86,9.2 1379.89,-1363.7 -1363.8,1379.8 1379.93,-1363.7 -1363.75,1379.9 1379.96,-1363.6 6.97,1381 3595.371,-6339 L 6465.04,15363.4 10059.3,9025.48 16397.2,5431.2 19991.5,-906.699 26329.4,-4501 l 3593.2,-6336.7 1364.8,-9.2 -1379.8,1363.7 1363.7,-1379.8 -1379.9,1363.7 1363.7,-1379.9 -1381,1362.6 -5.9,-1380"
         style="fill:#000000;fill-opacity:0.15;fill-rule:nonzero;stroke:none"
         id="path48" />
      <path
         d="m 30768.2,-9996.6 -3595.4,6339 L 20835,-63.2969 17240.7,6274.5 10902.9,9868.81 7308.57,16206.7 970.691,19801 -2622.5,26137.7 l -1364.86,9.2 1379.89,-1363.7 -1363.8,1379.8 1379.93,-1363.7 -1363.75,1379.9 1379.96,-1363.6 6.97,1381 3595.37,-6339 L 7365.04,16263.4 10959.3,9925.48 17297.2,6331.2 20891.5,-6.69922 27229.4,-3601 l 3593.2,-6336.7 1364.8,-9.2 -1379.8,1363.7 1363.7,-1379.8 -1379.9,1363.7 1363.7,-1379.9 -1381,1362.6 -5.9,-1380"
         style="fill:#000000;fill-opacity:0.15;fill-rule:nonzero;stroke:none"
         id="path50" />
      <path
         d="m 31668.2,-9096.6 -3595.4,6339 L 21735,836.703 18140.7,7174.5 11802.9,10768.8 8208.57,17106.7 1870.69,20701 l -3593.19,6336.7 -1364.86,9.2 1379.89,-1363.7 -1363.8,1379.8 1379.93,-1363.7 -1363.75,1379.9 1379.96,-1363.6 6.97,1381 3595.37,-6339 6337.83,-3594.2 3594.26,-6337.9 6337.9,-3594.3 3594.3,-6337.899 6337.9,-3594.301 3593.2,-6336.7 1364.8,-9.2 -1379.8,1363.7 1363.7,-1379.8 -1379.9,1363.7 1363.7,-1379.9 -1381,1362.6 -5.9,-1380"
         style="fill:#000000;fill-opacity:0.15;fill-rule:nonzero;stroke:none"
         id="path52" />
      <path
         d="m 32568.2,-8196.6 -3595.4,6339 -6337.8,3594.3 -3594.3,6337.82 -6337.8,3594.28 -3594.33,6337.9 -6337.88,3594.3 -3593.186,6336.7 -1364.864,9.2 1379.895,-1363.7 -1363.805,1379.8 1379.926,-1363.7 -1363.746,1379.9 1379.961,-1363.6 6.965,1381 3595.374,-6339 6337.83,-3594.2 3594.26,-6337.9 6337.9,-3594.31 3594.3,-6337.89 6337.9,-3594.3 3593.2,-6336.7 1364.8,-9.2 -1379.8,1363.7 1363.7,-1379.8 -1379.9,1363.7 1363.7,-1379.9 -1381,1362.6 -5.9,-1380"
         style="fill:#000000;fill-opacity:0.15;fill-rule:nonzero;stroke:none"
         id="path54" />
      <path
         d="M 33468.2,-7296.6 29872.8,-957.598 23535,2636.7 19940.7,8974.52 13602.9,12568.8 10008.6,18906.7 3670.69,22501 77.5039,28837.7 -1287.36,28846.9 92.5352,27483.2 -1271.27,28863 108.656,27499.3 -1255.09,28879.2 124.871,27515.6 l 6.965,1381 3595.374,-6339 6337.79,-3594.2 3594.3,-6337.9 6337.9,-3594.3 3594.3,-6337.9 6337.9,-3594.3 3593.2,-6336.7 1364.8,-9.2 -1379.8,1363.7 1363.7,-1379.8 -1379.9,1363.7 1363.7,-1379.9 -1381,1362.6 -5.9,-1380"
         style="fill:#000000;fill-opacity:0.15;fill-rule:nonzero;stroke:none"
         id="path56" />
      <path
         d="M 34368.2,-6396.6 30772.8,-57.5977 24435,3536.7 20840.7,9874.52 14502.9,13468.8 10908.6,19806.7 4570.69,23401 977.504,29737.7 -387.363,29746.9 992.535,28383.2 -371.27,29763 1008.66,28399.3 -355.094,29779.2 1024.87,28415.6 l 6.97,1381 3595.37,-6339 L 10965,19863.4 14559.3,13525.5 20897.2,9931.2 24491.5,3593.3 30829.4,-1 l 3593.2,-6336.7 1364.8,-9.2 -1379.8,1363.7 1363.7,-1379.8 -1379.9,1363.7 1363.7,-1379.9 -1381,1362.6 -5.9,-1380"
         style="fill:#000000;fill-opacity:0.15;fill-rule:nonzero;stroke:none"
         id="path58" />
      <path
         d="M 35268.2,-5496.6 31672.8,842.402 25335,4436.7 21740.7,10774.5 15402.9,14368.8 11808.6,20706.7 5470.69,24301 1877.5,30637.7 512.637,30646.9 1892.53,29283.2 528.73,30663 1908.66,29299.3 544.906,30679.2 1924.87,29315.6 l 6.97,1381 3595.37,-6339 6337.79,-3594.2 3594.3,-6337.9 6337.9,-3594.3 3594.3,-6337.9 6337.9,-3594.3 3593.2,-6336.7 1364.8,-9.2 -1379.8,1363.7 1363.7,-1379.8 -1379.9,1363.7 1363.7,-1379.9 -1381,1362.6 -5.9,-1380"
         style="fill:#000000;fill-opacity:0.15;fill-rule:nonzero;stroke:none"
         id="path60" />
      <path
         d="m 36168.2,-4596.6 -3595.4,6339 -6337.8,3594.3 -3594.3,6337.8 -6337.8,3594.3 -3594.3,6337.9 -6337.91,3594.3 -3593.19,6336.7 -1364.86,9.2 1379.89,-1363.7 -1363.8,1379.8 1379.93,-1363.7 -1363.75,1379.9 1379.96,-1363.6 6.97,1381 3595.37,-6339 6337.79,-3594.2 3594.3,-6337.9 6337.9,-3594.3 3594.3,-6337.9 6337.9,-3594.3 3593.2,-6336.7 1364.8,-9.2 -1379.8,1363.7 1363.7,-1379.8 -1379.9,1363.7 1363.7,-1379.9 -1381,1362.6 -5.9,-1380"
         style="fill:#000000;fill-opacity:0.15;fill-rule:nonzero;stroke:none"
         id="path62" />
      <path
         d="m 37068.2,-3696.6 -3595.4,6339 -6337.8,3594.3 -3594.3,6337.8 -6337.8,3594.3 -3594.3,6337.9 -6337.91,3594.3 -3593.19,6336.7 -1364.86,9.2 1379.89,-1363.7 -1363.8,1379.8 1379.93,-1363.7 -1363.75,1379.9 1379.96,-1363.6 6.97,1381 3595.37,-6339 6337.79,-3594.2 3594.3,-6337.9 6337.9,-3594.3 3594.3,-6337.9 6337.9,-3594.3 3593.2,-6336.7 1364.8,-9.2 -1379.8,1363.7 1363.7,-1379.8 -1379.9,1363.7 1363.7,-1379.9 -1381,1362.6 -5.9,-1380"
         style="fill:#000000;fill-opacity:0.15;fill-rule:nonzero;stroke:none"
         id="path64" />
      <path
         d="m 37968.2,-2796.6 -3595.4,6339 -6337.8,3594.3 -3594.3,6337.8 -6337.8,3594.3 -3594.3,6337.9 -6337.91,3594.3 -3593.19,6336.7 -1364.86,9.2 1379.89,-1363.7 -1363.8,1379.8 1379.93,-1363.7 -1363.75,1379.9 1379.96,-1363.6 6.97,1381 3595.37,-6339 6337.79,-3594.2 3594.3,-6337.9 6337.9,-3594.3 3594.3,-6337.9 6337.9,-3594.3 3593.2,-6336.7 1364.8,-9.2 -1379.8,1363.7 1363.7,-1379.8 -1379.9,1363.7 1363.7,-1379.9 -1381,1362.6 -5.9,-1380"
         style="fill:#000000;fill-opacity:0.15;fill-rule:nonzero;stroke:none"
         id="path66" />
      <path
         d="m 38868.2,-1896.6 -3595.4,6339 -6337.8,3594.25 -3594.3,6337.85 -6337.8,3594.3 -3594.3,6337.9 -6337.91,3594.3 -3593.19,6336.7 -1364.86,9.2 1379.89,-1363.7 -1363.8,1379.8 1379.93,-1363.7 -1363.75,1379.9 1379.96,-1363.6 6.97,1381 3595.37,-6339 6337.79,-3594.2 3594.3,-6337.9 6337.9,-3594.3 3594.3,-6337.87 6337.9,-3594.33 3593.2,-6336.7 1364.8,-9.2 -1379.8,1363.701 1363.7,-1379.801 -1379.9,1363.699 1363.7,-1379.899 -1381,1362.602 -5.9,-1380.002"
         style="fill:#000000;fill-opacity:0.15;fill-rule:nonzero;stroke:none"
         id="path68" />
      <path
         d="M 39768.2,-996.598 36172.8,5342.4 29835,8936.65 26240.7,15274.5 19902.9,18868.8 16308.6,25206.7 9970.69,28801 6377.5,35137.7 l -1364.86,9.2 1379.89,-1363.7 -1363.8,1379.8 1379.93,-1363.7 -1363.75,1379.9 1379.96,-1363.6 6.97,1381 3595.36,-6339 6337.8,-3594.2 3594.3,-6337.9 6337.9,-3594.3 L 29891.5,8993.33 36229.4,5399 39822.6,-937.699 41187.4,-946.898 39807.6,416.801 41171.3,-963 39791.4,400.699 l 1363.7,-1379.898 -1381,1362.601 -5.9,-1380"
         style="fill:#000000;fill-opacity:0.15;fill-rule:nonzero;stroke:none"
         id="path70" />
      <path
         d="M 40668.2,-96.5977 37072.8,6242.4 30735,9836.65 l -3594.3,6337.85 -6337.8,3594.3 -3594.3,6337.9 -6337.9,3594.3 -3593.2,6336.7 -1364.86,9.2 1379.89,-1363.7 -1363.8,1379.8 1379.93,-1363.7 -1363.75,1379.9 1379.96,-1363.6 6.97,1381 3595.36,-6339 6337.8,-3594.2 3594.3,-6337.9 6337.9,-3594.3 L 30791.5,9893.33 37129.4,6299 40722.6,-37.6992 42087.4,-46.8984 40707.6,1316.8 42071.3,-63 40691.4,1300.7 42055.1,-79.1992 40674.1,1283.4 40668.2,-96.5977"
         style="fill:#000000;fill-opacity:0.15;fill-rule:nonzero;stroke:none"
         id="path72" />
      <path
         d="M 41568.2,803.402 37972.8,7142.4 31635,10736.7 l -3594.3,6337.8 -6337.8,3594.3 -3594.3,6337.9 -6337.9,3594.3 -3593.2,6336.7 -1364.86,9.2 1379.89,-1363.7 -1363.8,1379.8 1379.93,-1363.7 -1363.75,1379.9 1379.96,-1363.6 6.97,1381 3595.36,-6339 6337.8,-3594.2 3594.3,-6337.9 6337.9,-3594.3 3594.3,-6337.9 L 38029.4,7199 41622.6,862.301 42987.4,853.102 41607.6,2216.8 42971.3,837 41591.4,2200.7 42955.1,820.801 41574.1,2183.4 41568.2,803.402"
         style="fill:#000000;fill-opacity:0.15;fill-rule:nonzero;stroke:none"
         id="path74" />
      <path
         d="m 42468.2,1703.4 -3595.4,6338.99 -6337.8,3594.31 -3594.3,6337.8 -6337.8,3594.3 -3594.3,6337.9 -6337.9,3594.3 -3593.2,6336.7 -1364.86,9.2 1379.89,-1363.7 -1363.8,1379.8 1379.93,-1363.7 -1363.75,1379.9 1379.96,-1363.6 6.97,1381 3595.36,-6339 6337.8,-3594.2 3594.3,-6337.9 6337.9,-3594.3 3594.3,-6337.9 6337.9,-3594.28 3593.2,-6336.72 1364.8,-9.2 -1379.8,1363.7 1363.7,-1379.8 -1379.9,1363.7 1363.7,-1379.9 -1381,1362.6 -5.9,-1380"
         style="fill:#000000;fill-opacity:0.15;fill-rule:nonzero;stroke:none"
         id="path76" />
      <path
         d="m 43368.2,2603.4 -3595.4,6338.99 -6337.8,3594.31 -3594.3,6337.8 -6337.8,3594.3 -3594.3,6337.9 -6337.9,3594.3 -3593.2,6336.7 -1364.86,9.2 1379.89,-1363.7 -1363.8,1379.8 1379.97,-1363.7 -1363.79,1379.9 1379.99,-1363.6 6.9,1381 3595.4,-6339 6337.8,-3594.2 3594.3,-6337.9 6337.9,-3594.3 3594.3,-6337.9 6337.9,-3594.27 3593.2,-6336.73 1364.8,-9.2 -1379.8,1363.7 1363.7,-1379.8 -1379.9,1363.7 1363.7,-1379.9 -1381,1362.6 -5.9,-1380"
         style="fill:#000000;fill-opacity:0.15;fill-rule:nonzero;stroke:none"
         id="path78" />
      <path
         d="m 44268.2,3503.4 -3595.4,6338.99 -6337.8,3594.31 -3594.3,6337.8 -6337.8,3594.3 -3594.3,6337.9 -6337.9,3594.3 -3593.2,6336.7 -1364.86,9.2 1379.86,-1363.7 -1363.77,1379.8 1379.97,-1363.7 -1363.79,1379.9 1379.99,-1363.6 6.9,1381 3595.4,-6339 6337.8,-3594.2 3594.3,-6337.9 6337.9,-3594.3 3594.3,-6337.9 6337.9,-3594.27 3593.2,-6336.73 1364.8,-9.2 -1379.8,1363.7 1363.7,-1379.8 -1379.9,1363.7 1363.7,-1379.9 -1381,1362.6 -5.9,-1380"
         style="fill:#000000;fill-opacity:0.15;fill-rule:nonzero;stroke:none"
         id="path80" />
      <path
         d="m 45168.2,4403.4 -3595.4,6339 -6337.8,3594.3 -3594.3,6337.8 -6337.8,3594.3 -3594.3,6337.9 -6337.9,3594.3 -3593.2,6336.7 -1364.9,9.2 1379.9,-1363.7 -1363.8,1379.8 1380,-1363.7 -1363.8,1379.9 1380,-1363.6 6.9,1381 3595.4,-6339 6337.8,-3594.2 3594.3,-6337.9 6337.9,-3594.3 3594.3,-6337.9 6337.9,-3594.3 3593.2,-6336.7 1364.8,-9.2 -1379.8,1363.7 1363.7,-1379.8 -1379.9,1363.7 1363.7,-1379.9 -1381,1362.6 -5.9,-1380"
         style="fill:#000000;fill-opacity:0.15;fill-rule:nonzero;stroke:none"
         id="path82" />
      <path
         d="m 46068.2,5303.4 -3595.4,6339 -6337.8,3594.3 -3594.3,6337.8 -6337.8,3594.3 -3594.3,6337.9 -6337.9,3594.3 -3593.2,6336.7 -1364.9,9.2 1379.9,-1363.7 -1363.8,1379.8 1380,-1363.7 -1363.8,1379.9 1380,-1363.6 6.9,1381 3595.4,-6339 6337.8,-3594.2 3594.3,-6337.9 6337.9,-3594.3 3594.3,-6337.9 6337.9,-3594.3 3593.2,-6336.7 1364.8,-9.2 -1379.8,1363.7 1363.7,-1379.8 -1379.9,1363.7 1363.7,-1379.9 -1381,1362.6 -5.9,-1380"
         style="fill:#000000;fill-opacity:0.15;fill-rule:nonzero;stroke:none"
         id="path84" />
      <path
         d="m 46968.2,6203.4 -3595.4,6339 -6337.8,3594.3 -3594.3,6337.8 -6337.8,3594.3 -3594.3,6337.9 -6337.9,3594.3 -3593.2,6336.7 -1364.9,9.2 1379.9,-1363.7 -1363.8,1379.8 1380,-1363.7 -1363.8,1379.9 1380,-1363.6 6.9,1381 3595.4,-6339 6337.8,-3594.2 3594.3,-6337.9 6337.9,-3594.3 3594.3,-6337.9 6337.9,-3594.3 3593.2,-6336.7 1364.8,-9.2 -1379.8,1363.7 1363.7,-1379.8 -1379.9,1363.7 1363.7,-1379.9 -1381,1362.6 -5.9,-1380"
         style="fill:#000000;fill-opacity:0.15;fill-rule:nonzero;stroke:none"
         id="path86" />
      <path
         d="m 47868.2,7103.4 -3595.4,6339 -6337.8,3594.3 -3594.3,6337.8 -6337.8,3594.3 -3594.3,6337.9 -6337.9,3594.3 -3593.2,6336.7 -1364.9,9.2 1379.9,-1363.7 -1363.8,1379.8 1380,-1363.7 -1363.8,1379.9 1380,-1363.6 6.9,1381 3595.4,-6339 6337.8,-3594.2 3594.3,-6337.9 6337.9,-3594.3 3594.3,-6337.9 6337.9,-3594.3 3593.2,-6336.7 1364.8,-9.2 -1379.8,1363.72 1363.7,-1379.82 -1379.9,1363.69 1363.7,-1379.89 -1381,1362.58 -5.9,-1379.98"
         style="fill:#000000;fill-opacity:0.15;fill-rule:nonzero;stroke:none"
         id="path88" />
      <path
         d="m 48768.2,8003.45 -3595.4,6338.95 -6337.8,3594.3 -3594.3,6337.8 -6337.8,3594.3 -3594.3,6337.9 -6337.9,3594.3 -3593.2,6336.7 -1364.9,9.2 1379.9,-1363.7 -1363.8,1379.8 1380,-1363.7 -1363.8,1379.9 1380,-1363.6 6.9,1381 3595.4,-6339 6337.8,-3594.2 3594.3,-6337.9 6337.9,-3594.3 3594.3,-6337.9 6337.9,-3594.3 3593.2,-6336.73 1364.8,-9.18 -1379.8,1363.73 1363.7,-1379.83 -1379.9,1363.7 1363.7,-1379.88 -1381,1362.57 -5.9,-1379.93"
         style="fill:#000000;fill-opacity:0.15;fill-rule:nonzero;stroke:none"
         id="path90" />
    </g>
  </g>
</svg>
