<svg xmlns="http://www.w3.org/2000/svg" xmlns:xlink="http://www.w3.org/1999/xlink" version="1.1" width="256" height="256" viewBox="0 0 256 256" xml:space="preserve">

<defs>
</defs>
<g style="stroke: none; stroke-width: 0; stroke-dasharray: none; stroke-linecap: butt; stroke-linejoin: miter; stroke-miterlimit: 10; fill: none; fill-rule: nonzero; opacity: 1;" transform="translate(1.4065934065934016 1.4065934065934016) scale(2.81 2.81)" >
	<path d="M 72.926 79.357 H 3.52 c -1.944 0 -3.52 -1.576 -3.52 -3.52 V 32.718 c 0 -1.944 1.576 -3.52 3.52 -3.52 h 69.406 c 1.944 0 3.52 1.576 3.52 3.52 v 43.119 C 76.446 77.781 74.87 79.357 72.926 79.357 z" style="stroke: none; stroke-width: 1; stroke-dasharray: none; stroke-linecap: butt; stroke-linejoin: miter; stroke-miterlimit: 10; fill: rgb(87,179,254); fill-rule: nonzero; opacity: 1;" transform=" matrix(1 0 0 1 0 0) " stroke-linecap="round" />
	<rect x="0" y="39.28" rx="0" ry="0" width="76.45" height="10.88" style="stroke: none; stroke-width: 1; stroke-dasharray: none; stroke-linecap: butt; stroke-linejoin: miter; stroke-miterlimit: 10; fill: rgb(235,235,241); fill-rule: nonzero; opacity: 1;" transform=" matrix(1 0 0 1 0 0) "/>
	<path d="M 87.07 22.353 L 18.651 10.694 c -1.917 -0.327 -3.735 0.962 -4.062 2.879 l -2.663 15.625 h 60.999 c 1.944 0 3.52 1.576 3.52 3.52 v 38.707 l 2.198 0.375 c 1.917 0.327 3.735 -0.962 4.062 -2.879 l 7.243 -42.506 C 90.276 24.498 88.987 22.679 87.07 22.353 z" style="stroke: none; stroke-width: 1; stroke-dasharray: none; stroke-linecap: butt; stroke-linejoin: miter; stroke-miterlimit: 10; fill: rgb(254,204,89); fill-rule: nonzero; opacity: 1;" transform=" matrix(1 0 0 1 0 0) " stroke-linecap="round" />
	<path d="M 68.051 57.391 h -15.22 c -0.553 0 -1 0.447 -1 1 v 10.885 c 0 0.553 0.447 1 1 1 h 15.22 c 0.553 0 1 -0.447 1 -1 V 58.391 C 69.051 57.838 68.604 57.391 68.051 57.391 z" style="stroke: none; stroke-width: 1; stroke-dasharray: none; stroke-linecap: butt; stroke-linejoin: miter; stroke-miterlimit: 10; fill: rgb(254,204,89); fill-rule: nonzero; opacity: 1;" transform=" matrix(1 0 0 1 0 0) " stroke-linecap="round" />
	<path d="M 41.451 59.391 H 8.396 c -0.552 0 -1 -0.447 -1 -1 s 0.448 -1 1 -1 h 33.056 c 0.552 0 1 0.447 1 1 S 42.003 59.391 41.451 59.391 z" style="stroke: none; stroke-width: 1; stroke-dasharray: none; stroke-linecap: butt; stroke-linejoin: miter; stroke-miterlimit: 10; fill: rgb(235,235,241); fill-rule: nonzero; opacity: 1;" transform=" matrix(1 0 0 1 0 0) " stroke-linecap="round" />
	<path d="M 12.322 65.932 H 8.396 c -0.552 0 -1 -0.447 -1 -1 s 0.448 -1 1 -1 h 3.926 c 0.552 0 1 0.447 1 1 S 12.874 65.932 12.322 65.932 z" style="stroke: none; stroke-width: 1; stroke-dasharray: none; stroke-linecap: butt; stroke-linejoin: miter; stroke-miterlimit: 10; fill: rgb(235,235,241); fill-rule: nonzero; opacity: 1;" transform=" matrix(1 0 0 1 0 0) " stroke-linecap="round" />
	<path d="M 22.032 65.932 h -3.927 c -0.552 0 -1 -0.447 -1 -1 s 0.448 -1 1 -1 h 3.927 c 0.552 0 1 0.447 1 1 S 22.584 65.932 22.032 65.932 z" style="stroke: none; stroke-width: 1; stroke-dasharray: none; stroke-linecap: butt; stroke-linejoin: miter; stroke-miterlimit: 10; fill: rgb(235,235,241); fill-rule: nonzero; opacity: 1;" transform=" matrix(1 0 0 1 0 0) " stroke-linecap="round" />
	<path d="M 31.741 65.932 h -3.926 c -0.552 0 -1 -0.447 -1 -1 s 0.448 -1 1 -1 h 3.926 c 0.552 0 1 0.447 1 1 S 32.293 65.932 31.741 65.932 z" style="stroke: none; stroke-width: 1; stroke-dasharray: none; stroke-linecap: butt; stroke-linejoin: miter; stroke-miterlimit: 10; fill: rgb(235,235,241); fill-rule: nonzero; opacity: 1;" transform=" matrix(1 0 0 1 0 0) " stroke-linecap="round" />
	<path d="M 41.451 65.932 h -3.926 c -0.552 0 -1 -0.447 -1 -1 s 0.448 -1 1 -1 h 3.926 c 0.552 0 1 0.447 1 1 S 42.003 65.932 41.451 65.932 z" style="stroke: none; stroke-width: 1; stroke-dasharray: none; stroke-linecap: butt; stroke-linejoin: miter; stroke-miterlimit: 10; fill: rgb(235,235,241); fill-rule: nonzero; opacity: 1;" transform=" matrix(1 0 0 1 0 0) " stroke-linecap="round" />
</g>
</svg>